<?xml version="1.0" standalone="no"?>
<!DOCTYPE svg PUBLIC "-//W3C//DTD SVG 20010904//EN"
 "http://www.w3.org/TR/2001/REC-SVG-20010904/DTD/svg10.dtd">
<svg version="1.0" xmlns="http://www.w3.org/2000/svg"
 width="346.000000pt" height="529.000000pt" viewBox="0 0 346.000000 529.000000"
 preserveAspectRatio="xMidYMid meet">

<g transform="translate(0.000000,529.000000) scale(0.100000,-0.100000)"
fill="#000000" stroke="none">
<path d="M810 5229 c-156 -40 -297 -125 -412 -247 -60 -64 -138 -182 -138
-210 0 -27 20 -8 56 56 51 88 189 227 280 280 38 23 108 56 155 74 79 30 92
32 214 32 122 1 135 -1 206 -30 41 -17 102 -48 135 -69 84 -56 222 -198 268
-278 37 -64 56 -82 56 -54 0 26 -77 142 -138 208 -199 215 -443 301 -682 238z"/>
<path d="M2447 5200 c-287 -46 -579 -239 -850 -563 -243 -292 -294 -354 -428
-527 -170 -218 -238 -309 -329 -441 l-67 -98 -111 104 c-60 58 -118 105 -129
104 -12 0 22 -39 103 -117 l122 -117 -69 -115 c-372 -615 -562 -1286 -481
-1696 54 -271 120 -382 397 -660 252 -252 1132 -1024 1169 -1024 23 0 891 883
904 921 2 5 -3 9 -11 9 -7 0 -69 -60 -137 -133 -163 -174 -484 -502 -637 -650
l-122 -118 -163 137 c-586 494 -997 871 -1142 1048 -153 186 -192 266 -232
472 -65 340 56 862 323 1399 60 120 214 385 223 385 4 0 80 -66 171 -147 172
-155 505 -444 722 -627 73 -62 133 -106 141 -103 27 10 742 801 938 1037 142
170 306 442 343 566 54 188 60 438 13 571 -48 135 -139 248 -253 314 -106 62
-273 90 -408 69z m252 -35 c188 -45 342 -202 397 -405 25 -96 23 -286 -5 -415
-44 -204 -191 -453 -433 -734 -160 -184 -424 -478 -641 -714 -185 -201 -212
-226 -226 -214 -223 188 -553 472 -715 616 -114 103 -225 200 -244 217 -44 38
-49 25 86 215 162 226 407 539 696 889 243 294 522 488 782 544 91 19 223 19
303 1z"/>
<path d="M2310 2673 c-232 -30 -398 -140 -535 -352 -26 -40 -62 -108 -81 -150
-26 -60 -34 -72 -40 -56 -83 247 -281 432 -528 495 -150 38 -325 36 -424 -5
-59 -25 -24 -35 53 -15 177 47 428 2 589 -105 121 -80 233 -230 282 -377 14
-43 31 -77 37 -75 6 2 18 25 27 53 10 27 34 83 55 124 114 227 264 361 465
416 90 25 290 25 379 0 180 -49 348 -167 435 -304 35 -56 91 -194 112 -275 9
-37 20 -67 25 -67 29 0 -13 155 -81 295 -85 177 -284 331 -492 380 -68 16
-221 26 -278 18z"/>
</g>
</svg>
